<svg version="1.1" id="Layer_1" xmlns="http://www.w3.org/2000/svg" xmlns:xlink="http://www.w3.org/1999/xlink" x="0px" y="0px"
	 width="100%" viewBox="0 0 282 294" enable-background="new 0 0 282 294" xml:space="preserve">
<path fill="#000000" opacity="1.000000" stroke="none" 
	d="
M283.000000,109.000000 
	C283.000000,169.973740 282.969391,230.447556 283.084412,290.921082 
	C283.090576,294.170380 282.669250,295.110474 279.082092,295.105225 
	C187.621994,294.971771 96.161636,294.978790 4.701471,295.087158 
	C1.462397,295.091003 0.927662,294.212311 0.930334,291.204559 
	C1.015130,195.746078 1.013347,100.287506 0.936938,4.829009 
	C0.934595,1.901726 1.345532,0.902950 4.667904,0.907154 
	C96.294640,1.023102 187.921585,1.021495 279.548309,0.908022 
	C282.661896,0.904166 283.082275,1.694884 283.073029,4.545641 
	C282.960541,39.196808 283.000000,73.848465 283.000000,109.000000 
z"/>
<path fill="#FFE700" opacity="1.000000" stroke="none" 
	d="
M84.903397,162.633575 
	C81.390121,160.750549 80.204613,158.210815 81.749062,154.669266 
	C83.770576,150.033768 85.755844,145.382462 87.797386,140.372482 
	C86.682579,136.424896 89.516541,134.672211 91.576378,132.194962 
	C94.123642,129.871857 96.722069,128.189850 99.288773,125.895470 
	C103.153992,123.128960 107.248329,121.822914 111.796562,120.690155 
	C113.057655,120.433548 113.977745,120.282417 115.187363,119.818695 
	C115.763336,119.664497 115.997223,119.611366 116.586548,119.490250 
	C120.363335,117.901840 124.195915,117.986313 128.059174,116.602142 
	C128.716507,116.502571 128.985092,116.474205 129.660873,116.374893 
	C141.972244,115.421219 153.808472,115.421837 165.751266,119.180183 
	C167.712234,119.689445 169.214478,120.239700 170.967606,121.199875 
	C176.053085,124.275711 180.273575,127.851723 184.702942,131.765015 
	C185.836349,132.594376 186.378876,133.460266 187.207291,134.584320 
	C191.664398,141.779053 195.834763,148.677246 195.681946,157.572952 
	C195.963226,158.979156 196.040527,160.009232 195.823135,161.427521 
	C193.891434,164.847534 195.370041,168.809616 192.876984,172.047607 
	C192.665421,172.606247 192.597961,172.835037 192.391235,173.391449 
	C190.972733,175.605957 189.242325,177.217148 188.620438,179.897522 
	C185.075150,186.557251 180.672546,191.990906 173.815948,195.501495 
	C169.736420,196.279053 166.625839,199.391190 161.772186,198.145416 
	C158.408096,196.570862 161.801834,192.744629 158.177856,191.983841 
	C158.990128,196.988983 155.417923,199.007568 151.134842,199.814590 
	C148.718842,200.269821 145.634979,201.092957 143.842697,198.256714 
	C142.349060,195.893082 142.930313,193.365891 143.588699,190.740097 
	C143.958893,189.263672 147.309326,187.499634 144.169312,186.120285 
	C141.637573,185.008118 137.963440,182.497803 136.587616,187.870422 
	C136.071823,189.884537 134.632965,190.292374 132.835724,189.990173 
	C131.099060,189.698120 129.373856,189.338013 127.394196,188.960190 
	C127.712082,190.895340 129.362488,191.574722 130.605042,192.847839 
	C131.303055,193.192535 131.559372,193.552689 131.747681,194.328888 
	C131.529419,196.185883 131.515411,197.756332 130.412048,199.642456 
	C126.595665,195.426987 122.927864,191.073700 118.373077,187.159988 
	C117.047546,186.479477 116.788452,185.514832 116.913727,184.056351 
	C117.107956,182.114929 119.299660,182.614502 119.379471,180.883484 
	C118.988930,179.952011 118.988281,179.291824 119.355515,178.322876 
	C121.849052,176.803329 124.353889,177.990982 126.217140,177.476166 
	C127.396896,177.471741 126.795128,178.213623 126.898552,177.555023 
	C126.905884,177.508362 126.787216,177.477432 126.543213,177.484619 
	C123.620712,177.570770 120.681801,177.292664 117.780846,177.877686 
	C117.654305,177.903198 117.510338,177.842361 117.374489,177.821747 
	C117.433556,177.974167 117.492622,178.126602 117.597519,178.606308 
	C116.755188,182.060760 114.598999,181.901321 111.825485,180.869766 
	C108.055542,179.081406 107.890625,175.895050 108.662750,173.074127 
	C109.603973,169.635376 109.352737,166.245911 109.494469,163.359970 
	C110.469849,168.141891 107.742104,173.255020 108.804550,178.894379 
	C110.163116,185.033112 106.007454,183.199219 102.903351,183.436111 
	C101.648201,184.043503 100.445686,183.924652 99.373611,184.994781 
	C98.341537,185.465302 97.523415,185.575760 96.755714,186.142578 
	C97.910522,185.819305 99.211403,185.523727 100.597183,184.513611 
	C104.434059,184.740540 108.155067,182.438324 111.720016,185.521667 
	C112.458885,186.894104 112.452446,188.001251 112.339905,189.529160 
	C112.108337,190.479965 111.865273,190.980774 111.295715,191.780090 
	C110.025978,194.005310 108.188133,195.026993 106.337753,194.591309 
	C104.887192,194.249741 104.182480,194.893036 104.491966,195.619553 
	C106.323296,199.918472 103.137169,198.921143 101.071014,198.980301 
	C96.853683,199.101120 92.597595,198.578659 88.613655,200.714417 
	C86.822258,201.674774 85.970070,200.785889 85.951256,198.714706 
	C85.935303,196.958313 86.542206,195.107819 85.513405,193.430115 
	C85.480446,193.376358 85.250839,193.391571 85.148819,193.444214 
	C85.005806,193.518051 84.896530,193.657227 84.186768,193.689468 
	C83.219856,192.871246 83.765762,192.203735 83.798996,191.465515 
	C82.928696,191.816498 82.904785,192.728302 82.270004,193.598206 
	C80.324982,192.394135 75.951042,196.937851 75.969185,191.167831 
	C75.978455,188.221298 75.751381,185.822540 80.131767,187.465714 
	C82.508369,188.357224 84.176025,186.769211 82.990227,184.090668 
	C81.244850,180.148148 82.251381,174.900436 77.217453,172.397614 
	C76.241875,171.912567 77.549431,170.166550 78.333199,169.053604 
	C80.069595,166.587906 83.493217,166.081039 84.672653,162.894943 
	C87.508339,161.649124 89.287605,162.858566 89.958878,165.786667 
	C90.686714,168.961517 92.597404,171.404297 94.555115,173.887726 
	C96.639687,176.532104 98.361252,175.771103 100.189407,173.692932 
	C102.256813,171.342773 102.114906,168.525574 101.960640,165.699310 
	C101.807968,162.902222 101.214958,160.132980 101.729591,157.297928 
	C102.103188,155.239807 102.637444,153.423508 104.996262,152.945068 
	C98.720322,153.376343 93.508560,156.373886 88.092712,159.612488 
	C87.463608,159.433044 87.233292,159.231674 87.083672,158.956558 
	C86.923416,158.661880 86.963753,158.750992 87.369644,159.498962 
	C87.763390,161.517975 86.520691,162.102676 84.903397,162.633575 
z"/>
<path fill="#E94E1B" opacity="1.000000" stroke="none" 
	d="
M172.670166,194.309341 
	C179.201126,190.826218 183.173889,185.321503 187.072601,179.322632 
	C189.395630,177.824951 190.261887,175.805634 190.820312,173.190887 
	C191.019638,172.915192 191.032059,173.026428 190.976654,173.034454 
	C195.222610,170.620163 195.049637,166.731949 194.239502,162.338821 
	C194.120148,160.937912 194.083481,159.860245 194.100189,158.380951 
	C194.664581,156.543777 195.917847,156.234879 197.184692,155.710220 
	C200.427032,154.367462 200.839401,152.321594 198.631546,149.612213 
	C192.978424,142.674835 193.124069,141.319992 200.140625,135.655807 
	C200.528717,135.342499 200.962067,135.082748 201.335541,134.754196 
	C202.788849,133.475830 203.092514,131.912201 202.107224,130.280243 
	C200.874237,128.238007 199.415024,129.694580 198.280716,130.374435 
	C196.143387,131.655441 194.126846,133.142960 191.860123,134.207657 
	C190.213608,134.981033 188.596329,135.937531 186.324646,135.288849 
	C185.380875,134.616959 184.756409,134.084091 183.991898,133.273651 
	C182.672150,131.326233 183.136169,129.174591 182.021576,127.394135 
	C179.494049,123.356636 175.698212,123.165283 171.320618,123.296944 
	C169.753174,122.617821 168.498093,122.093521 167.050232,121.285110 
	C165.303360,118.575150 166.765945,117.026634 168.447693,115.545845 
	C172.975479,111.559151 178.136917,109.544868 184.628845,110.605354 
	C185.238876,110.864792 185.463806,110.999435 185.954285,111.411926 
	C187.037292,113.355728 186.037445,114.930107 185.988144,116.549713 
	C185.912292,119.040657 187.689316,120.400406 189.440903,121.663628 
	C190.712341,122.580574 191.967499,122.026459 193.103653,121.202431 
	C195.098007,119.755974 194.943558,117.922546 194.157639,115.883141 
	C193.122162,113.196159 193.156708,110.961700 196.761673,110.372787 
	C198.142700,110.147163 198.383850,108.913582 198.656372,107.749603 
	C198.996399,106.297318 199.641632,104.928421 199.990860,103.481766 
	C200.823349,100.033165 202.365646,97.228569 206.227875,96.609207 
	C209.828186,96.031853 212.228043,97.863548 214.127029,101.147133 
	C214.560760,103.247284 214.231430,104.755646 212.296722,105.945305 
	C209.243332,104.971977 207.896301,105.945320 206.729706,108.548729 
	C205.655579,110.945801 205.726349,112.725143 207.773453,114.177406 
	C209.700623,115.544594 211.890259,115.665367 213.592987,113.817383 
	C215.103455,112.178101 216.823669,111.843689 218.919403,111.784172 
	C221.318161,111.716049 221.967834,112.578972 222.062347,114.935852 
	C222.357330,122.292061 223.610229,123.632973 231.102432,126.103073 
	C232.103531,126.433121 233.486969,127.122734 233.716248,127.925072 
	C234.076797,129.186737 232.651276,129.632492 231.578094,130.154800 
	C223.397049,134.136429 223.947098,144.486038 231.899872,148.968750 
	C233.354874,149.788879 235.173462,150.631393 234.722260,152.511246 
	C234.316925,154.200027 232.330414,153.793823 230.898285,154.107346 
	C219.632324,156.573822 218.804199,165.614090 223.685333,172.141983 
	C226.272324,175.601761 224.913055,176.791946 221.209625,177.008743 
	C210.547104,177.632935 207.711441,181.091949 210.387772,191.462296 
	C211.304382,195.014023 210.162552,194.939285 207.581192,195.041885 
	C203.537308,195.202591 199.516678,194.411285 195.509644,196.659317 
	C192.179916,198.527359 191.600952,200.870850 192.115524,203.984192 
	C192.390656,205.648712 194.176163,207.616135 192.069122,208.750092 
	C190.294815,209.705002 188.304932,208.682281 187.018280,206.510803 
	C186.783234,204.743896 185.572464,203.720718 185.544525,201.911713 
	C184.918579,196.562912 184.918182,196.561646 180.100998,198.058014 
	C178.011185,198.707184 175.837082,198.730698 173.776093,198.267868 
	C171.739883,197.810593 170.471039,196.607559 172.670166,194.309341 
z"/>
<path fill="#F6B600" opacity="1.000000" stroke="none" 
	d="
M81.024292,63.182194 
	C82.911873,56.729313 84.760979,50.698883 86.640564,44.677971 
	C87.003868,43.514191 86.789368,42.941032 85.488495,42.558247 
	C81.123528,41.273834 78.362740,42.778332 77.150589,47.307579 
	C75.604126,53.085926 73.906189,58.831322 72.607613,64.665283 
	C71.937531,67.675644 70.575607,69.002480 67.524384,68.533119 
	C65.094315,68.159309 62.662071,69.665977 60.024162,68.570221 
	C62.020309,61.340034 64.058914,54.201107 65.916031,47.015278 
	C66.272179,45.637199 68.767220,43.302380 65.663025,42.799831 
	C63.201359,42.401295 59.394245,40.652271 58.143951,45.100666 
	C56.390621,51.338806 54.791763,57.620270 53.055996,63.863503 
	C52.594757,65.522484 52.909576,67.966736 50.689091,68.346710 
	C47.774677,68.845428 44.714962,69.064034 41.795296,68.728409 
	C40.284119,68.554703 40.809025,66.341209 41.090393,65.244461 
	C43.742928,54.905121 46.531776,44.600449 49.333847,34.300076 
	C49.819454,32.514992 51.049858,31.926495 53.006939,31.938892 
	C67.994911,32.033829 82.983795,32.002728 97.972328,31.977562 
	C100.044357,31.974083 101.480339,31.882334 100.581657,34.919029 
	C97.613358,44.949055 94.968079,55.074459 92.170349,65.155350 
	C91.514206,67.519562 82.087860,70.408035 80.470154,68.657837 
	C78.886154,66.944099 81.583748,65.388687 81.024292,63.182194 
z"/>
<path fill="#FAD702" opacity="1.000000" stroke="none" 
	d="
M110.681152,101.459862 
	C114.934555,93.262787 116.162117,84.621094 117.997910,76.175011 
	C118.659203,73.132523 119.679077,71.782501 123.085617,71.885498 
	C129.718307,72.086037 136.382263,72.335701 143.007370,71.473999 
	C144.691635,71.254929 146.841202,72.125755 147.348679,69.381439 
	C147.458603,68.787086 148.155914,68.019775 148.618805,68.993706 
	C150.744537,73.466042 155.088776,71.381020 158.718933,72.365845 
	C159.911575,73.156181 159.861908,74.123116 159.228439,75.441879 
	C156.585327,76.632790 156.347427,78.962807 155.799179,80.951797 
	C153.745407,88.403030 148.045944,92.523804 142.947830,96.227615 
	C145.901016,95.738770 145.872482,95.713310 148.535934,92.728790 
	C150.054138,91.027557 151.469147,88.950310 154.584030,90.396866 
	C156.630737,94.994759 155.072021,98.606529 152.157379,102.307922 
	C151.130402,103.077980 150.196487,103.546135 150.056091,104.310234 
	C148.838348,110.937660 144.015915,111.113037 138.690720,111.216080 
	C130.518250,111.374229 122.402855,110.252693 113.782532,110.483932 
	C112.402802,110.438019 111.472084,110.456779 110.244835,109.735367 
	C107.942970,106.774330 109.039368,104.277275 110.681152,101.459862 
z"/>
<path fill="#F2B300" opacity="1.000000" stroke="none" 
	d="
M117.958168,42.545181 
	C113.034866,41.658215 110.723236,43.477367 110.101456,48.000633 
	C109.697510,50.939262 107.419533,54.427296 108.399216,56.556667 
	C109.807396,59.617363 113.518265,56.339954 116.352386,56.865635 
	C120.916153,57.712128 125.621208,57.584679 130.278336,57.080517 
	C131.065842,56.995270 132.470978,57.039745 132.606934,57.397827 
	C133.648697,60.141594 131.569794,62.400238 131.160202,64.954048 
	C130.902527,66.560585 130.823273,68.440826 128.484711,68.510269 
	C117.675430,68.831245 106.853615,68.062775 96.045692,68.926750 
	C94.284317,69.067551 93.950783,67.801865 94.380508,66.181435 
	C97.275795,55.263878 100.166603,44.344559 102.933929,33.394238 
	C103.380981,31.625219 104.531281,32.005726 105.581024,32.002792 
	C116.238365,31.973080 126.895866,32.001881 137.553192,31.969217 
	C139.397003,31.963568 140.156830,32.265244 139.758621,34.517334 
	C138.343460,42.520588 133.646225,48.522175 127.714516,53.386997 
	C124.473373,56.045193 119.751640,54.601479 115.296562,55.155373 
	C117.757950,50.373634 121.316200,47.058670 125.117043,43.504883 
	C122.917999,41.802277 120.541756,42.895279 117.958168,42.545181 
z"/>
<path fill="#FBE300" opacity="1.000000" stroke="none" 
	d="
M92.820084,106.713303 
	C91.144447,101.598038 87.195496,104.634399 84.325790,103.896988 
	C82.221794,103.356331 81.317116,104.837303 81.081741,106.690964 
	C80.881264,108.269836 80.171547,109.047966 78.505524,109.015823 
	C75.406723,108.956039 72.305946,108.998680 68.853874,108.998680 
	C73.065170,97.960373 75.445892,87.020439 77.863289,76.107239 
	C78.565865,72.935532 79.782555,71.809715 83.062424,71.917900 
	C90.377541,72.159210 97.706116,71.980980 105.029144,71.998398 
	C108.788742,72.007339 114.755150,78.326820 113.647331,81.787811 
	C111.650200,88.027206 112.316895,95.633530 105.126328,99.483505 
	C102.501648,100.888817 104.891571,102.598900 105.552185,104.437668 
	C107.471329,105.296967 108.255501,106.565857 108.460167,108.621155 
	C108.208481,109.240395 108.041611,109.460121 107.529831,109.915131 
	C103.851334,110.803528 100.518303,111.471840 96.692863,110.483871 
	C94.243729,110.247192 92.992737,109.230911 92.820084,106.713303 
z"/>
<path fill="#FCE400" opacity="1.000000" stroke="none" 
	d="
M31.418373,108.977341 
	C28.534031,104.840347 31.547991,101.178978 32.405357,97.578712 
	C34.118507,90.384827 36.502872,83.330147 38.024151,76.061348 
	C38.617218,73.227623 39.770695,71.743851 43.166782,71.895210 
	C50.474434,72.220924 57.806721,71.976906 65.128807,72.001930 
	C69.723366,72.017632 74.901001,78.302879 73.822906,82.774612 
	C72.539589,88.097610 71.092148,93.388031 69.502953,98.628006 
	C68.324577,102.513405 58.965462,108.988785 54.843067,108.998878 
	C47.188129,109.017609 39.533108,109.001259 31.418373,108.977341 
z"/>
<path fill="#F6B700" opacity="1.000000" stroke="none" 
	d="
M135.219574,56.471992 
	C137.840744,48.931202 140.321106,41.773247 141.796875,34.344898 
	C142.174652,32.443245 142.822800,31.951519 144.627838,31.961418 
	C156.229553,32.025040 167.831787,31.993921 179.270782,31.993921 
	C176.281189,43.065643 173.356155,53.936649 170.404785,64.800491 
	C169.695847,67.410057 160.397415,70.460823 158.481766,68.694855 
	C157.630585,67.910187 158.151566,66.958572 158.432968,65.997696 
	C160.474747,59.026112 162.277039,51.978977 164.523346,45.075581 
	C165.328217,42.602074 164.725052,42.086498 162.514374,42.180756 
	C162.182327,42.194908 161.848862,42.187599 161.516388,42.178284 
	C150.838501,41.879086 150.836166,41.878246 148.127380,52.052254 
	C147.273300,55.260220 146.460114,58.479248 145.584961,61.681396 
	C143.630875,68.831322 142.871567,69.322098 135.429871,68.965080 
	C133.353073,68.865448 132.804077,68.032745 133.381317,66.117165 
	C134.290970,63.098476 135.248306,60.078346 135.219574,56.471992 
z"/>
<path fill="#F6B600" opacity="1.000000" stroke="none" 
	d="
M207.716385,67.904129 
	C196.601044,69.275063 196.618073,69.279686 199.444122,58.878880 
	C201.622162,50.862991 203.969482,42.882183 205.766861,34.780472 
	C206.302383,32.366531 207.033234,31.935827 209.188873,31.952057 
	C220.510986,32.037296 231.834091,31.991938 243.360336,31.991938 
	C240.330383,43.237358 237.161072,54.294777 234.448807,65.463196 
	C233.545197,69.184105 231.167282,68.435608 228.794235,68.530869 
	C222.227081,68.794464 222.468323,68.845291 223.836273,62.277214 
	C225.061584,56.393997 226.716858,50.655174 228.611694,44.982914 
	C229.257156,43.050640 229.220215,42.138912 226.977188,42.185497 
	C226.644287,42.192413 226.310547,42.194187 225.978058,42.179016 
	C215.005905,41.678364 215.014679,41.680378 212.182999,52.198406 
	C210.800735,57.332638 209.378769,62.456177 207.716385,67.904129 
z"/>
<path fill="#FCE300" opacity="1.000000" stroke="none" 
	d="
M211.791519,106.443588 
	C212.806961,104.763535 213.184113,103.330696 212.911179,101.375938 
	C212.637634,97.808868 211.148529,96.276527 207.741440,96.445694 
	C204.409088,96.611160 201.324646,96.766907 200.609772,100.914772 
	C200.383606,102.226974 199.893463,103.468788 199.603287,104.755951 
	C198.785385,108.384079 196.855392,110.722794 192.906509,110.876305 
	C190.732346,110.960831 188.869507,112.410355 186.349335,112.089859 
	C186.048431,111.903107 186.023712,111.976044 186.060608,111.987068 
	C182.907715,108.918015 185.156738,105.509254 185.555450,101.795738 
	C186.799393,96.335396 187.226517,91.095497 189.593475,85.932526 
	C191.903107,81.609940 191.913284,77.061264 193.570312,72.603691 
	C198.162292,72.309608 202.460663,72.309608 206.718124,72.309608 
	C206.797501,72.610184 206.921799,72.805321 206.870651,72.926247 
	C201.645966,85.277870 201.917740,85.654167 215.015457,85.027420 
	C216.829514,84.940613 217.506165,84.741829 218.157089,82.542992 
	C221.957779,69.704239 218.071396,71.996704 232.961670,72.235886 
	C230.255707,78.242310 230.848923,85.754143 223.565216,89.183556 
	C221.061264,90.362503 222.729813,91.745239 223.661606,93.069344 
	C225.659439,95.908333 225.055130,105.894417 222.788925,108.379486 
	C221.806702,109.456566 212.177353,109.255989 211.120773,108.060707 
	C210.998413,107.922256 211.481445,107.248680 211.791519,106.443588 
z"/>
<path fill="#FFE700" opacity="1.000000" stroke="none" 
	d="
M186.608826,201.751526 
	C187.540039,203.159683 188.488815,204.276077 187.261505,205.936615 
	C186.498978,206.240524 186.014420,206.348099 185.377060,206.111725 
	C185.224243,205.767792 184.812332,205.615402 184.812332,205.615402 
	C184.812332,205.615402 184.990097,205.680695 185.162567,205.666260 
	C184.477417,210.058929 184.477493,210.050156 180.447250,210.017639 
	C179.796280,210.012390 178.956360,209.888321 178.528900,210.228134 
	C177.350601,211.164886 174.678009,211.095795 175.302643,213.231659 
	C175.765701,214.815033 178.016159,214.191422 179.238312,213.895325 
	C181.647522,213.311630 184.016510,212.720108 186.483429,213.036453 
	C187.645309,213.185440 189.359879,212.157150 189.875534,213.982147 
	C190.490402,216.158295 188.571655,216.624161 187.154556,217.411972 
	C183.588699,219.394333 179.593536,218.870117 175.783249,219.525528 
	C181.496155,219.730148 187.328857,221.235489 192.651382,217.740707 
	C193.798080,216.987762 195.157089,216.254013 195.872437,217.947037 
	C196.467667,219.355774 195.473694,220.458817 194.066544,220.980865 
	C190.510132,222.300354 186.944595,223.595291 182.419876,225.252747 
	C188.945419,227.389114 193.578262,222.888168 199.303238,223.040161 
	C197.803864,226.441925 195.592957,228.096985 192.692902,228.993820 
	C188.363739,230.332642 184.652496,232.464935 182.360962,236.974335 
	C181.625381,236.890854 181.281876,236.569031 180.914673,235.821625 
	C180.521011,234.744568 181.041260,233.942963 180.669724,233.180832 
	C179.411560,234.109390 179.889282,235.180542 180.440826,236.576630 
	C180.494385,237.124527 180.468964,237.346985 180.241547,237.837738 
	C178.451965,239.148544 176.952148,240.371002 175.258820,241.196564 
	C171.573883,242.993149 170.448227,242.197342 171.084137,237.971558 
	C171.344208,236.243393 170.290085,237.114563 169.906326,237.046005 
	C168.802567,236.848816 166.690735,237.153229 166.842560,236.196304 
	C167.502945,232.034225 164.322052,230.584259 162.259888,228.127655 
	C161.322876,227.011414 161.437836,224.661804 163.929962,223.347504 
	C165.783569,222.369980 168.159302,221.431870 168.276764,218.074432 
	C168.358322,215.743469 171.766937,217.869308 173.543015,216.457657 
	C170.786407,215.849014 168.359985,214.870544 165.565018,214.916779 
	C162.772247,214.962967 160.937805,215.717667 159.757065,218.410538 
	C159.394577,219.237228 159.419647,221.642258 157.432739,220.703308 
	C156.220932,220.130661 154.910156,219.077332 154.996887,217.262878 
	C155.107651,214.945328 155.130646,212.623596 155.455704,209.975372 
	C155.671280,209.256973 155.551178,208.889343 155.147827,208.729462 
	C152.642929,209.001358 150.000534,209.617081 150.018646,205.963776 
	C150.030609,203.550186 148.970657,200.793091 153.418320,200.632767 
	C155.776047,200.547791 158.236618,199.081253 160.931213,198.302643 
	C161.084274,197.931427 160.998581,197.996231 160.956085,198.029083 
	C169.745911,196.634888 178.495804,195.816818 186.608826,201.751526 
z"/>
<path fill="#FBE200" opacity="1.000000" stroke="none" 
	d="
M151.077576,101.236885 
	C153.094879,97.854889 153.975464,94.514717 153.808182,90.171410 
	C153.573624,89.130447 153.497757,88.874023 153.399567,88.216721 
	C155.010056,83.700409 155.768677,79.273293 158.192688,75.146759 
	C158.722763,74.272659 158.895020,73.564156 159.073608,72.577850 
	C162.882401,70.514191 166.952271,71.347412 170.790100,71.628426 
	C178.113174,72.164612 185.420303,71.755844 193.238220,72.092773 
	C192.997528,74.359573 192.928238,76.695168 192.213104,78.918182 
	C190.529953,84.150352 189.330338,85.187408 183.723038,85.038689 
	C180.429031,84.951324 177.164749,84.369217 173.842453,84.474144 
	C168.821747,84.632698 167.396423,86.197662 167.021881,91.920273 
	C166.703171,96.789337 170.304657,95.866508 173.514252,96.187027 
	C176.388641,95.772697 178.845001,95.795288 181.296204,96.001411 
	C183.782944,96.210518 185.743454,97.140617 186.092926,100.424767 
	C185.996063,103.075424 185.144165,105.078697 184.695053,107.165955 
	C184.268173,109.149857 182.929016,110.311234 180.878006,110.437546 
	C172.013718,110.983475 163.148788,111.881638 153.794525,110.530594 
	C152.354767,110.456024 151.380020,110.498032 150.108612,109.733765 
	C147.992996,106.547783 149.495911,104.021729 151.077576,101.236885 
z"/>
<path fill="#FBBA00" opacity="1.000000" stroke="none" 
	d="
M104.385338,225.112366 
	C103.934395,228.164307 102.639000,230.349167 98.942024,230.520233 
	C98.331306,230.451477 97.975418,230.545135 97.763458,230.836823 
	C98.293694,234.320465 94.694725,233.887619 93.583290,235.757446 
	C92.350128,234.958923 91.620392,233.821579 90.797646,232.584412 
	C88.223763,228.714020 82.634392,225.211578 83.616997,221.115417 
	C84.434708,217.706665 90.438828,215.739380 93.675247,212.642044 
	C95.730865,210.674744 100.385506,210.498154 99.168236,205.804749 
	C99.126801,205.644989 99.886436,205.011887 100.175423,205.071442 
	C105.381477,206.144165 107.864532,201.402435 111.720840,199.624832 
	C117.258492,197.072174 118.718132,197.150604 122.302933,201.815277 
	C128.764740,210.223694 128.662964,211.047852 119.477875,216.803024 
	C116.143883,218.892029 112.599213,220.188507 111.288498,224.817947 
	C110.662178,227.030075 107.056610,226.344177 104.385338,225.112366 
z"/>
<path fill="#FFE700" opacity="1.000000" stroke="none" 
	d="
M141.591721,188.718994 
	C141.882004,191.044922 141.931473,193.089584 141.906921,195.567017 
	C140.916031,197.120377 140.300964,198.261673 141.852264,199.745850 
	C142.772583,207.719727 145.613281,214.906281 147.906540,222.608704 
	C144.756302,225.792023 144.472015,229.616043 144.057159,233.706787 
	C144.371017,236.147522 141.796753,236.820740 141.417450,238.904480 
	C138.673965,240.397949 137.278732,237.919968 135.323425,237.450485 
	C137.706970,238.330933 138.598007,240.064545 138.180832,242.803436 
	C136.448853,246.860107 133.224014,249.239136 130.450775,251.966415 
	C128.589737,253.796585 125.810120,253.734436 124.131271,252.394104 
	C120.889267,249.805817 116.922630,247.852890 114.977798,243.472900 
	C114.490181,242.583801 114.157722,241.658966 114.658981,241.363907 
	C118.320564,239.208542 119.019951,234.773163 122.098663,232.053757 
	C124.713539,229.744080 124.690918,225.819138 125.386490,222.263580 
	C127.082222,218.173904 129.228500,217.818436 131.827499,221.837784 
	C131.902161,220.627869 131.960800,219.677689 132.093323,218.364090 
	C134.364624,216.700333 135.866913,215.329346 132.397156,213.237946 
	C132.026886,208.852310 132.127182,204.662262 129.967285,200.471222 
	C130.048981,199.948212 130.173981,199.820190 130.486389,199.500046 
	C132.989594,199.115372 133.362793,201.166794 134.296753,202.092743 
	C133.964417,201.105484 132.701630,199.894714 133.679901,197.985001 
	C134.113129,197.657867 134.336060,197.603668 134.836212,197.753372 
	C135.730957,197.837997 136.585892,199.588120 136.887833,198.007172 
	C137.464203,194.989273 137.663666,191.899384 138.093414,188.419922 
	C139.395081,186.933334 140.411758,187.403275 141.591721,188.718994 
z"/>
<path fill="#E84E1B" opacity="1.000000" stroke="none" 
	d="
M92.520370,106.327484 
	C93.790909,107.135872 93.822128,108.783974 95.726929,109.082008 
	C96.645950,109.724487 97.604782,109.982780 97.954948,110.681923 
	C99.644279,114.054764 101.417336,115.264183 104.076233,111.464691 
	C105.195595,109.865166 107.664215,111.130554 109.540115,109.262878 
	C110.857964,108.964432 111.614662,109.026558 112.747787,109.138641 
	C115.287865,111.411179 118.060402,110.416962 120.560661,110.436623 
	C123.464699,110.459473 126.090836,110.994011 128.246338,112.963158 
	C129.525940,114.132118 131.146484,115.343597 129.368256,117.654694 
	C128.847473,117.894089 128.675385,117.943848 128.246567,118.072845 
	C123.942406,117.860420 119.665871,116.463425 116.295403,120.793640 
	C116.069138,121.058060 116.005508,121.013039 116.031281,121.042603 
	C115.327660,121.654366 114.433380,121.427193 113.376526,121.780533 
	C109.038048,123.755310 104.523468,124.491661 100.355927,127.069038 
	C97.058540,127.961647 93.897675,128.495605 93.295593,132.697388 
	C91.634842,135.248520 89.210495,136.792618 87.996429,139.704529 
	C84.108116,138.956055 85.257500,134.841858 83.227119,132.641876 
	C81.614685,130.894775 80.492065,128.695618 79.151970,126.697159 
	C81.123909,125.600220 83.159599,124.602608 85.054985,123.386360 
	C89.471306,120.552505 91.263138,116.295670 88.689301,110.842995 
	C86.265747,105.708710 89.190208,106.449257 92.520370,106.327484 
z"/>
<path fill="#F6B700" opacity="1.000000" stroke="none" 
	d="
M189.716187,43.618683 
	C191.503235,31.682457 191.503235,31.682457 204.321411,32.108730 
	C201.537170,42.434631 198.619202,52.706726 196.051239,63.065578 
	C195.096878,66.915367 193.822250,68.866837 189.238693,68.686043 
	C182.362076,68.414803 182.393372,68.874802 184.373123,62.144142 
	C186.148026,56.109871 187.799408,50.039261 189.716187,43.618683 
z"/>
<path fill="#E94E1B" opacity="1.000000" stroke="none" 
	d="
M213.257690,237.222900 
	C207.426453,239.359543 204.482773,243.598694 202.583160,248.837601 
	C201.398010,252.106125 198.796738,253.012650 195.548203,253.033066 
	C192.751404,253.050629 190.908905,251.285873 190.308243,249.223633 
	C189.507889,246.475815 189.135712,243.159103 192.322876,241.202667 
	C197.432587,238.066101 201.634155,234.446442 203.493225,228.257751 
	C204.542633,224.764328 210.261368,223.985672 213.409851,226.166870 
	C216.783600,228.504150 216.827896,232.238617 213.257690,237.222900 
z"/>
<path fill="#E94E1B" opacity="1.000000" stroke="none" 
	d="
M41.616547,170.857666 
	C44.661186,165.546234 47.151436,160.699020 45.193142,154.460464 
	C44.279736,151.550598 46.812191,149.195419 49.701508,147.624130 
	C52.654804,146.018021 54.794453,148.067917 56.341599,149.336731 
	C58.552422,151.149780 58.955956,154.477783 57.356415,157.045288 
	C54.230694,162.062576 53.679691,167.418915 53.946102,173.118362 
	C54.151665,177.515945 51.660469,179.960190 47.552887,179.992935 
	C43.474918,180.025452 41.163609,177.609222 41.028229,173.100739 
	C41.008980,172.459885 41.242840,171.811401 41.616547,170.857666 
z"/>
<path fill="#E94E1B" opacity="1.000000" stroke="none" 
	d="
M87.736763,259.994934 
	C82.858604,260.786316 80.050865,258.726990 78.353172,254.784592 
	C76.573830,250.652603 72.810272,248.614807 69.065445,247.214722 
	C65.678917,245.948563 64.127281,243.778778 64.132141,240.727051 
	C64.137276,237.499313 66.384041,234.991913 69.449203,234.387360 
	C72.608551,233.764206 75.512245,234.935211 77.074051,238.273422 
	C79.281738,242.992111 83.213806,245.833099 87.807121,248.004135 
	C90.260895,249.163925 92.332237,250.823669 91.999748,254.041473 
	C91.726913,256.681854 91.644585,259.431946 87.736763,259.994934 
z"/>
<path fill="#E94E1B" opacity="1.000000" stroke="none" 
	d="
M49.006123,218.591034 
	C49.942238,212.880096 47.830105,208.415634 44.765583,204.503616 
	C42.506290,201.619522 42.175049,198.674561 43.843620,195.905502 
	C45.196823,193.659821 47.771034,192.207840 50.675461,193.348923 
	C54.206600,194.736252 56.313419,197.358154 55.966106,201.315598 
	C55.570728,205.820755 56.734028,209.963760 59.778023,213.057831 
	C62.459221,215.783142 62.720066,218.836487 61.535168,221.631622 
	C60.422165,224.257141 57.462589,225.199234 54.390804,225.016998 
	C50.541775,224.788666 49.803745,221.916489 49.006123,218.591034 
z"/>
<path fill="#E94E1B" opacity="1.000000" stroke="none" 
	d="
M118.001221,271.987549 
	C115.902351,271.656555 114.504082,270.898560 112.442230,271.600281 
	C109.302765,272.668732 105.849388,272.446106 103.957214,268.766663 
	C102.689240,266.300995 102.079559,263.688232 104.152641,261.449554 
	C106.830208,258.558136 110.240059,257.989258 113.470467,260.263519 
	C117.894661,263.378296 122.799530,263.237091 127.716438,262.940857 
	C131.143082,262.734375 133.861710,263.911652 134.764252,266.996094 
	C135.443176,269.316284 135.885742,272.288940 133.213089,274.283356 
	C130.202820,276.529755 127.107307,276.625336 124.117470,274.505615 
	C122.347115,273.250519 120.720154,271.924164 118.001221,271.987549 
z"/>
<path fill="#E94E1B" opacity="1.000000" stroke="none" 
	d="
M215.002350,207.058838 
	C214.761887,204.499039 216.250763,202.974396 216.942215,201.159668 
	C218.265854,197.685806 219.963501,194.413239 218.262344,190.333450 
	C217.021027,187.356537 218.391968,184.047836 221.170334,182.616898 
	C223.719116,181.304230 226.892349,181.127335 229.344696,183.800446 
	C231.854431,186.536118 231.827469,189.697113 229.975662,192.336639 
	C227.090652,196.448959 226.370178,200.790512 227.271622,205.467911 
	C228.243408,210.510269 226.671310,213.396515 222.211304,213.987335 
	C217.877411,214.561447 215.494324,212.408173 215.002350,207.058838 
z"/>
<path fill="#E94E1B" opacity="1.000000" stroke="none" 
	d="
M155.078186,273.997803 
	C150.297531,273.650665 148.661819,271.018738 149.037796,266.966034 
	C149.395294,263.112854 151.740906,260.889648 155.540436,261.078735 
	C160.909485,261.345978 165.413315,260.056763 169.489792,256.341949 
	C172.051758,254.007309 175.273743,254.652863 178.108810,256.629974 
	C180.845108,258.538269 180.421646,261.505554 179.794388,263.862762 
	C179.044144,266.682098 176.703903,268.499603 173.383926,267.989624 
	C168.104782,267.178772 163.782135,269.254303 160.011551,272.602692 
	C158.596390,273.859406 157.164398,274.082550 155.078186,273.997803 
z"/>
<path fill="#E94E1B" opacity="1.000000" stroke="none" 
	d="
M64.598022,135.967010 
	C60.049576,136.384888 56.837963,135.030136 56.352440,130.564835 
	C55.932617,126.703812 58.256023,124.323479 61.833313,122.932396 
	C66.068916,121.285324 68.281311,117.706802 70.071838,113.752739 
	C72.297424,108.837967 76.438362,113.040619 79.538460,111.936638 
	C81.004356,111.414612 82.627693,112.287392 82.885811,114.083611 
	C83.310211,117.036919 82.637215,119.493889 79.686142,121.137215 
	C74.905785,123.799171 70.749229,127.203003 69.083733,132.729462 
	C68.438362,134.870926 66.486443,135.039536 64.598022,135.967010 
z"/>
<path fill="#0F0801" opacity="1.000000" stroke="none" 
	d="
M173.211456,97.640396 
	C163.444016,98.268379 163.806885,98.343536 165.723862,89.087959 
	C166.764526,84.063385 168.672348,82.266685 173.873154,82.700989 
	C182.243546,83.399971 191.454285,84.937256 193.779663,72.564171 
	C193.749100,72.166039 193.864059,72.218040 193.863983,72.263824 
	C194.422913,76.839554 193.000793,81.026245 191.411423,85.499794 
	C187.886444,90.093880 183.948807,91.810905 178.768875,88.951660 
	C176.805405,87.867859 174.497864,87.461136 172.693008,88.903648 
	C170.407303,90.730461 172.765381,92.400620 173.428467,94.084137 
	C173.865860,95.194603 174.123016,96.283417 173.211456,97.640396 
z"/>
<path fill="#FFE700" opacity="1.000000" stroke="none" 
	d="
M125.087349,222.382706 
	C129.374466,223.703430 129.401413,223.879440 126.042641,226.564896 
	C125.714798,226.827011 125.331734,227.627060 125.376251,227.661774 
	C130.372879,231.556519 123.933235,231.636505 123.484116,233.622543 
	C123.022697,235.662994 117.807831,235.891861 121.321739,239.521133 
	C121.786362,240.001038 120.005775,241.566742 118.580536,241.780121 
	C117.411728,241.955109 115.939308,240.659729 115.036530,242.816071 
	C113.875404,242.852386 112.625374,243.310165 111.733719,242.239471 
	C110.336754,240.562027 107.136658,239.727615 111.757942,237.190796 
	C117.532051,234.021164 120.889687,227.879227 125.087349,222.382706 
z"/>
<path fill="#FFE700" opacity="1.000000" stroke="none" 
	d="
M111.400787,192.059402 
	C111.038177,191.618423 111.034447,191.122986 111.036087,190.255997 
	C111.772797,188.842133 112.476311,187.795853 111.317429,186.278320 
	C107.958900,183.918350 104.678917,186.539154 101.221161,185.950638 
	C99.121681,186.389542 97.420975,187.219681 95.282295,187.118744 
	C94.959671,184.517929 96.378120,183.920273 98.735550,183.970001 
	C99.792908,183.133469 100.699486,183.247818 101.802498,183.093079 
	C102.553635,180.811157 103.440628,179.352737 105.548088,181.363342 
	C106.849770,182.605209 107.620361,182.890320 107.983459,180.471451 
	C108.714729,177.858276 110.624039,178.651566 112.572334,178.721008 
	C114.344131,181.188126 115.621452,180.645996 116.922432,178.451370 
	C117.621597,177.301590 118.509575,177.519012 119.680252,177.876312 
	C119.999794,178.833359 119.999619,179.500015 119.999168,180.500000 
	C119.759621,182.258347 118.677475,182.388016 117.528862,182.503235 
	C116.871559,182.569168 116.467651,182.852524 117.083359,182.597137 
	C117.170746,182.560898 117.380798,182.563583 117.879517,182.940857 
	C118.007721,184.219498 118.015480,185.272278 118.032906,186.719742 
	C117.008018,190.106079 113.763702,190.258804 111.400787,192.059402 
z"/>
<path fill="#FFE700" opacity="1.000000" stroke="none" 
	d="
M83.588196,193.769623 
	C85.352867,196.169830 85.736946,199.955276 84.585281,200.346954 
	C82.151657,201.174652 79.234520,201.670486 76.611534,201.695694 
	C74.540695,201.715591 75.102806,198.897324 74.990723,197.146332 
	C74.846161,194.888031 76.190582,195.416183 77.710197,195.061859 
	C79.350372,194.679413 81.628616,197.412872 82.356140,194.001678 
	C82.211075,193.646515 82.358124,193.498230 82.299919,193.113312 
	C82.426628,193.074997 82.758598,193.273300 83.588196,193.769623 
z"/>
<path fill="#FFE700" opacity="1.000000" stroke="none" 
	d="
M144.441391,233.875610 
	C141.339813,230.614059 142.766403,225.366348 147.468506,223.020340 
	C147.183411,226.675690 146.700958,230.399460 144.441391,233.875610 
z"/>
<path fill="#FFE700" opacity="1.000000" stroke="none" 
	d="
M138.352234,242.982635 
	C136.479614,241.164902 136.061447,238.275711 133.032028,237.502441 
	C132.099304,237.264359 131.811111,235.924377 132.579117,235.033768 
	C133.314087,234.181458 134.114655,234.798523 134.609222,235.435028 
	C136.115814,237.373993 138.892883,236.961639 140.794830,238.874603 
	C140.291199,240.317062 139.475464,241.585861 138.352234,242.982635 
z"/>
<path fill="#FFE700" opacity="1.000000" stroke="none" 
	d="
M134.978180,197.635681 
	C134.907974,197.970886 134.702499,197.984497 134.188828,198.018295 
	C131.901306,198.597015 130.803497,197.842972 130.760498,195.462601 
	C130.956665,194.624985 130.956223,194.135803 130.944519,193.279922 
	C130.933273,192.913208 130.961365,192.971924 130.932281,192.957352 
	C131.450317,192.525925 131.948563,192.051498 132.737274,191.388397 
	C133.450470,191.118622 133.900681,191.069916 134.684525,191.094757 
	C135.179352,191.279785 135.340576,191.391235 135.666748,191.746048 
	C136.713211,193.989182 135.351776,195.572464 134.978180,197.635681 
z"/>
<path fill="#FFE700" opacity="1.000000" stroke="none" 
	d="
M132.095795,213.343079 
	C133.923187,212.764297 136.211792,211.270401 136.761978,214.394424 
	C137.264084,217.245422 135.314774,217.969925 132.545685,217.995941 
	C133.316299,216.523026 132.554611,215.108612 132.095795,213.343079 
z"/>
<path fill="#E84E1B" opacity="1.000000" stroke="none" 
	d="
M108.170860,108.983810 
	C108.075348,108.683472 107.943985,108.431366 107.929047,108.290016 
	C107.223335,106.759567 106.657669,105.331451 106.685875,103.401779 
	C107.925491,102.240829 108.763313,101.001480 110.652306,101.039963 
	C111.305496,103.536316 110.611794,105.819176 110.096054,108.513268 
	C110.101273,108.902313 109.784363,109.219009 109.626144,109.377579 
	C109.041008,109.577995 108.639122,109.500519 108.170860,108.983810 
z"/>
<path fill="#000000" opacity="1.000000" stroke="none" 
	d="
M82.548187,192.813354 
	C82.094658,192.876694 81.930763,193.329590 81.997391,193.562195 
	C82.064018,193.794785 82.112823,193.827164 82.106689,193.851898 
	C84.817047,191.397003 80.065483,191.656418 80.696938,189.666611 
	C82.499420,189.777115 84.337990,189.928177 86.179543,189.989304 
	C87.411171,190.030197 88.778984,190.299927 88.480072,191.713684 
	C88.078156,193.614639 86.721489,191.926315 85.807861,192.048035 
	C84.858154,192.174561 83.935951,192.507401 82.548187,192.813354 
z"/>
<path fill="#FFE700" opacity="1.000000" stroke="none" 
	d="
M142.062881,199.563507 
	C140.874634,199.884705 139.218109,200.233810 138.878235,198.671082 
	C138.556198,197.190399 139.983536,196.579865 141.521683,196.060547 
	C141.892548,197.056152 141.952179,198.112518 142.062881,199.563507 
z"/>
<path fill="#FFE700" opacity="1.000000" stroke="none" 
	d="
M141.906342,188.600677 
	C140.819489,188.702713 139.806442,188.405167 138.480331,188.054047 
	C137.761154,186.520050 138.356003,186.029892 139.847839,185.966995 
	C141.569031,185.894455 142.225342,186.542023 141.906342,188.600677 
z"/>
<path fill="#583E04" opacity="1.000000" stroke="none" 
	d="
M106.534775,103.231827 
	C107.197342,104.494118 107.569038,105.946426 107.927422,107.773697 
	C106.925041,107.416672 105.970421,106.658531 105.788109,105.022423 
	C105.951202,104.286049 106.097549,103.853943 106.534775,103.231827 
z"/>
<path fill="#FFE800" opacity="1.000000" stroke="none" 
	d="
M180.345093,238.058929 
	C180.025833,237.902710 180.012131,237.699341 179.977753,237.190948 
	C179.243698,235.514389 179.803528,234.816711 181.573669,234.721527 
	C181.976471,235.385635 181.995575,235.884781 182.030884,236.758148 
	C181.861557,237.870071 181.301743,238.013397 180.345093,238.058929 
z"/>
<path fill="#FFE700" opacity="1.000000" stroke="none" 
	d="
M132.653381,191.096634 
	C132.802963,191.997955 132.388763,192.635727 131.202393,192.897873 
	C131.052765,192.070862 130.822861,190.921158 132.653381,191.096634 
z"/>
<path fill="#FFE700" opacity="1.000000" stroke="none" 
	d="
M135.872253,191.728394 
	C135.605515,191.856491 135.408310,191.689392 135.129120,191.328201 
	C135.316360,191.268021 135.614578,191.367706 135.872253,191.728394 
z"/>
<path fill="#050300" opacity="1.000000" stroke="none" 
	d="
M129.484329,117.917145 
	C128.873016,113.300423 125.049210,112.927292 122.019165,112.090454 
	C119.887451,111.501732 117.486748,111.858917 115.205917,111.849091 
	C113.920815,111.843559 112.925552,111.612480 113.097900,109.595978 
	C122.519783,109.130112 131.919327,108.891144 141.309036,109.098297 
	C145.293839,109.186218 147.941177,108.579727 148.234344,103.953568 
	C148.314285,102.692139 148.486313,100.809631 151.074768,100.941635 
	C150.932648,103.506401 150.372101,105.995033 150.106598,108.801277 
	C151.577484,110.136024 151.289963,111.817871 152.863785,114.039772 
	C152.151047,111.864960 151.889572,110.726471 152.703339,109.416817 
	C160.191711,109.104156 167.472733,109.030785 174.753906,109.007065 
	C182.709244,108.981140 182.709305,109.001160 185.073654,101.333725 
	C185.604462,100.644501 186.050659,100.526955 186.843811,100.828079 
	C187.172195,104.433197 184.847092,107.599991 186.143250,111.555145 
	C178.206650,109.865875 172.922302,115.053825 167.146210,118.807373 
	C166.889252,118.974358 167.030731,119.754478 166.922043,120.625008 
	C154.759232,117.489975 142.345337,117.848373 129.484329,117.917145 
z"/>
<path fill="#000000" opacity="1.000000" stroke="none" 
	d="
M87.325516,159.244141 
	C88.398460,160.190430 89.018723,158.692261 89.396713,157.969040 
	C92.075737,152.843338 96.767357,152.052155 101.808975,152.021042 
	C104.131958,152.006714 106.478920,152.270996 107.532326,149.259903 
	C108.298111,151.123825 107.980431,152.762344 107.858932,154.422668 
	C106.737755,154.567764 106.718170,152.027649 105.345650,153.326309 
	C104.560913,154.068817 103.578957,154.479614 103.591637,156.283249 
	C103.612556,159.260834 103.748878,162.204758 103.935242,165.178421 
	C104.165764,168.856842 104.474960,172.526123 102.061615,175.967316 
	C100.589264,178.066772 96.212257,175.363892 96.744507,180.184570 
	C93.773064,174.418900 87.226997,171.233200 87.852516,163.938644 
	C87.959763,162.687912 86.323799,163.120636 84.971405,162.750275 
	C84.516754,162.557190 84.553894,162.591919 84.556961,162.598221 
	C85.616066,161.535522 86.672104,160.466522 87.325516,159.244141 
z"/>
<path fill="#000000" opacity="1.000000" stroke="none" 
	d="
M186.003601,135.517273 
	C190.067764,132.784897 194.405334,130.936554 198.218445,128.072311 
	C199.638428,127.005669 201.655258,124.669746 203.720398,126.751877 
	C205.983597,129.033737 205.285782,134.843811 202.853546,136.521988 
	C201.659393,137.345917 200.168716,137.744370 198.988495,138.583328 
	C195.015472,141.407532 194.678558,144.772049 198.883163,147.134613 
	C203.788101,149.890686 202.495499,152.981354 201.054153,156.814301 
	C200.250870,158.950516 199.204269,158.629425 197.787018,157.944504 
	C196.789963,157.462646 195.884247,156.428345 194.463959,157.850159 
	C193.409103,151.058273 191.461868,144.552521 187.307816,138.871078 
	C186.617447,137.926880 185.765488,137.180923 186.003601,135.517273 
z"/>
<path fill="#000000" opacity="1.000000" stroke="none" 
	d="
M186.915436,201.607117 
	C185.535736,201.997482 184.212021,201.920181 182.902283,202.022263 
	C181.310120,202.146347 180.422714,201.123947 180.784317,199.596649 
	C181.261475,197.581390 179.678207,198.025360 178.657867,198.018539 
	C173.058624,197.981201 167.459015,197.997406 161.386566,198.028580 
	C164.650604,196.626877 168.771545,196.267517 172.599945,194.090134 
	C172.759933,195.072601 171.058121,196.479401 172.974991,196.787552 
	C175.303085,197.161804 178.030746,197.903702 180.142227,196.207748 
	C182.007980,194.709137 183.523087,193.031113 186.160690,194.643356 
	C189.264542,196.540604 187.184357,198.971954 186.915436,201.607117 
z"/>
<path fill="#000000" opacity="1.000000" stroke="none" 
	d="
M171.145966,123.453979 
	C171.170013,123.111961 171.330811,123.074654 171.493683,123.052711 
	C173.858963,122.733780 175.886215,119.624535 177.941330,120.807587 
	C180.697708,122.394325 182.820740,125.165688 185.023407,127.602280 
	C186.690475,129.446365 183.965988,130.639236 183.920547,132.648529 
	C178.952789,130.885651 176.420273,125.552856 171.145966,123.453979 
z"/>
<path fill="#000000" opacity="1.000000" stroke="none" 
	d="
M111.613953,125.968254 
	C113.434807,122.558014 117.510651,123.564003 120.577469,122.116943 
	C122.844742,121.047157 125.637039,121.151649 128.076492,120.364426 
	C129.810608,119.804817 131.491684,119.935699 131.507462,121.603622 
	C131.516998,122.610794 131.711029,125.346069 128.660858,125.078178 
	C124.869049,124.745140 121.025429,125.023300 117.204613,124.989540 
	C115.396362,124.973564 113.592331,124.863586 111.613953,125.968254 
z"/>
<path fill="#000000" opacity="1.000000" stroke="none" 
	d="
M116.477936,121.032173 
	C116.481590,116.480576 119.625343,114.245712 123.432091,115.874199 
	C124.766930,116.445229 126.034897,117.172592 127.661613,117.990326 
	C124.430374,119.654228 120.709923,120.530106 116.477936,121.032173 
z"/>
<path fill="#000000" opacity="1.000000" stroke="none" 
	d="
M193.975677,162.376007 
	C195.987869,163.074173 194.623810,167.174149 198.548691,166.487701 
	C199.217224,166.370789 197.070236,171.592239 195.383759,171.955078 
	C194.142029,172.222229 192.717957,171.653412 191.295135,172.919678 
	C191.879028,169.607132 192.836792,166.171783 193.975677,162.376007 
z"/>
<path fill="#000000" opacity="1.000000" stroke="none" 
	d="
M130.619919,195.067596 
	C130.447174,197.105652 132.578491,196.821884 133.570190,197.912857 
	C133.917282,200.749146 136.466888,201.385727 138.232452,202.962952 
	C137.240219,204.540848 133.775803,203.523972 135.342804,207.846405 
	C133.487823,204.233994 132.345123,202.008682 130.938110,199.545654 
	C130.329102,197.898514 128.718765,196.604568 130.619919,195.067596 
z"/>
<path fill="#000000" opacity="1.000000" stroke="none" 
	d="
M93.451447,132.878082 
	C92.057037,126.338943 93.485359,124.932602 99.609299,127.073540 
	C98.697624,129.886566 95.311676,130.308838 93.451447,132.878082 
z"/>
<path fill="#000000" opacity="1.000000" stroke="none" 
	d="
M112.775635,178.526001 
	C111.553955,179.307007 109.854408,178.382767 108.342331,180.002930 
	C105.730721,178.409058 108.039497,176.531097 108.210365,174.915680 
	C108.743530,169.874939 109.049629,164.823151 109.544174,159.764114 
	C109.536263,164.069794 110.690277,168.287613 109.220718,172.689850 
	C108.457161,174.977203 107.698112,178.696854 112.775635,178.526001 
z"/>
<path fill="#000000" opacity="1.000000" stroke="none" 
	d="
M101.072861,188.035217 
	C103.951965,188.237656 104.290833,189.974304 103.909538,191.860718 
	C103.532509,193.726028 102.520134,191.912445 101.808128,191.958618 
	C100.095390,192.069733 97.673882,192.559677 97.221107,190.384964 
	C96.727203,188.012680 100.055832,189.721817 101.072861,188.035217 
z"/>
<path fill="#000000" opacity="1.000000" stroke="none" 
	d="
M120.454109,178.092499 
	C119.247543,178.117294 118.495117,178.067886 117.371323,178.092590 
	C116.677734,178.098389 116.329109,178.086914 116.038017,177.951630 
	C114.952065,177.447006 115.447693,177.048584 116.212723,177.041260 
	C121.173584,176.993835 126.135117,177.016937 131.131516,178.018311 
	C127.723763,178.018311 124.316010,178.018311 120.454109,178.092499 
z"/>
<path fill="#000000" opacity="1.000000" stroke="none" 
	d="
M118.361931,183.092773 
	C116.650528,183.166733 115.301086,183.166733 113.730972,183.166733 
	C115.313034,180.909790 117.924377,183.049011 119.635719,181.014847 
	C121.113586,180.933121 122.228279,181.032898 123.351280,181.133423 
	C122.651718,183.979263 120.551178,183.151993 118.361931,183.092773 
z"/>
<path fill="#000000" opacity="1.000000" stroke="none" 
	d="
M87.049637,158.961823 
	C85.835205,158.564728 84.404266,160.659195 83.332169,158.750046 
	C82.989037,158.139008 82.865562,156.857910 83.237183,156.497467 
	C84.242584,155.522324 85.776253,155.799271 86.941147,156.123138 
	C88.526085,156.563797 86.550896,157.581512 86.960114,158.714325 
	C86.922882,159.090759 87.006012,159.003433 87.049637,158.961823 
z"/>
<path fill="#000000" opacity="1.000000" stroke="none" 
	d="
M117.968430,144.849487 
	C116.777908,146.173706 115.014320,147.106140 114.189438,145.907806 
	C113.201408,144.472443 115.012093,143.086685 116.161011,142.464630 
	C118.503166,141.196518 117.788315,143.382095 117.968430,144.849487 
z"/>
<path fill="#000000" opacity="1.000000" stroke="none" 
	d="
M190.693573,173.034622 
	C190.556778,175.227097 192.398361,178.709534 187.541687,178.981583 
	C188.221817,177.034042 189.294662,175.094040 190.693573,173.034622 
z"/>
<path fill="#000000" opacity="1.000000" stroke="none" 
	d="
M133.324036,133.020813 
	C131.651215,133.791489 130.372528,134.442780 128.716949,133.695694 
	C131.741501,131.380371 135.038956,131.951035 138.740952,132.206528 
	C136.907883,133.520920 135.259109,132.763107 133.324036,133.020813 
z"/>
<path fill="#000000" opacity="1.000000" stroke="none" 
	d="
M94.680252,186.978577 
	C96.836632,187.264267 98.294426,185.301163 100.565536,186.061829 
	C98.446899,187.905197 95.421486,188.108978 92.561012,189.395813 
	C92.437599,187.508072 94.145721,188.095428 94.680252,186.978577 
z"/>
<path fill="#000000" opacity="1.000000" stroke="none" 
	d="
M130.201080,186.237778 
	C131.300659,186.800125 131.988632,187.314697 132.759583,186.553619 
	C133.448959,185.873093 132.281616,183.829605 134.314896,184.194672 
	C135.315414,184.374313 134.932449,185.528015 134.984207,186.283310 
	C135.135986,188.498672 133.472595,187.933853 132.270416,187.980652 
	C131.623306,188.005829 130.969284,187.853912 130.120392,187.429840 
	C129.865662,186.782333 129.808929,186.486893 130.201080,186.237778 
z"/>
<path fill="#000000" opacity="1.000000" stroke="none" 
	d="
M102.875061,128.884583 
	C102.674110,128.541519 102.786858,128.146912 103.011375,128.067200 
	C104.582787,127.509430 106.177284,127.016724 107.764389,126.503204 
	C107.829140,126.978058 108.105698,127.564430 107.924004,127.909523 
	C106.806877,130.031311 104.796776,128.554672 102.875061,128.884583 
z"/>
<path fill="#000000" opacity="1.000000" stroke="none" 
	d="
M165.036713,182.770157 
	C164.849060,180.120575 165.020538,177.529175 165.192032,174.937790 
	C165.830719,177.566406 166.560760,180.184967 165.036713,182.770157 
z"/>
<path fill="#000000" opacity="1.000000" stroke="none" 
	d="
M111.063316,186.424500 
	C112.597397,185.792938 113.612541,186.534576 113.887299,187.853912 
	C114.217796,189.440903 112.102180,188.720337 111.382706,189.830017 
	C111.031807,188.858307 111.022141,187.832169 111.063316,186.424500 
z"/>
<path fill="#000000" opacity="1.000000" stroke="none" 
	d="
M189.968170,147.371979 
	C190.321899,148.472733 190.777390,149.171844 190.922638,149.930389 
	C191.062317,150.659851 191.267593,151.740341 190.108536,151.866684 
	C188.890594,151.999435 189.009842,150.933929 189.020309,150.166122 
	C189.035797,149.028351 189.154190,147.891876 189.244202,146.756073 
	C189.246109,146.731857 189.453064,146.680328 189.531708,146.715179 
	C189.678589,146.780304 189.801437,146.899582 189.968170,147.371979 
z"/>
<path fill="#000000" opacity="1.000000" stroke="none" 
	d="
M163.187241,186.852951 
	C163.606934,185.309723 163.931351,184.267471 164.466660,182.968597 
	C164.677567,182.711975 164.618652,182.660797 164.579056,182.626709 
	C164.373291,184.073837 169.422638,185.310104 164.410538,187.041718 
	C163.746994,187.171539 163.419464,187.262741 163.187241,186.852951 
z"/>
<path fill="#000000" opacity="1.000000" stroke="none" 
	d="
M127.367126,136.431946 
	C128.809158,139.981964 126.260109,138.875809 124.469696,138.862015 
	C124.396103,136.993317 126.121796,137.234512 127.367126,136.431946 
z"/>
<path fill="#000000" opacity="1.000000" stroke="none" 
	d="
M88.709160,142.751251 
	C88.974518,142.313293 88.950920,142.100189 89.046242,141.997925 
	C89.236618,141.793655 89.492210,141.650162 89.720871,141.481583 
	C89.806290,142.864197 89.891708,144.246826 89.993530,145.895050 
	C88.420883,145.076019 87.454971,144.459717 88.709160,142.751251 
z"/>
<path fill="#000000" opacity="1.000000" stroke="none" 
	d="
M130.106918,186.881760 
	C128.278671,186.940536 126.975090,186.221863 124.863586,183.894211 
	C127.510208,184.824936 128.848465,185.295547 130.418335,186.025146 
	C130.530441,186.417984 130.410934,186.551865 130.106918,186.881760 
z"/>
<path fill="#000000" opacity="1.000000" stroke="none" 
	d="
M178.743317,163.874176 
	C178.861252,165.575363 179.386856,167.036224 178.390244,168.720505 
	C177.970383,166.767868 177.543976,165.172195 178.743317,163.874176 
z"/>
<path fill="#000000" opacity="1.000000" stroke="none" 
	d="
M136.873856,119.256485 
	C138.575302,119.138939 140.036453,118.613045 141.721039,119.609795 
	C139.768036,120.029869 138.172073,120.455879 136.873856,119.256485 
z"/>
<path fill="#000000" opacity="1.000000" stroke="none" 
	d="
M101.658989,182.818298 
	C102.490227,185.527100 100.330406,183.215836 99.460129,183.976105 
	C99.197670,183.386856 99.077530,182.594330 99.406998,182.292343 
	C100.117027,181.641586 100.770981,182.250076 101.658989,182.818298 
z"/>
<path fill="#000000" opacity="1.000000" stroke="none" 
	d="
M151.250305,195.779358 
	C149.481079,196.042343 147.965240,196.250076 147.197281,194.220306 
	C148.898972,194.105347 150.192551,194.980560 151.250305,195.779358 
z"/>
<path fill="#000000" opacity="1.000000" stroke="none" 
	d="
M162.098114,168.505341 
	C160.896545,167.314911 160.575195,166.240067 160.846771,164.059647 
	C161.820404,166.104141 163.513962,166.914215 162.098114,168.505341 
z"/>
<path fill="#000000" opacity="1.000000" stroke="none" 
	d="
M128.138580,182.003555 
	C129.124191,182.055374 129.748062,182.109360 130.694504,182.191254 
	C129.333878,183.458481 128.099976,182.928589 126.930168,182.829483 
	C126.794731,182.818008 126.673836,182.634949 126.546196,182.531433 
	C126.956413,182.356201 127.366638,182.180954 128.138580,182.003555 
z"/>
<path fill="#000000" opacity="1.000000" stroke="none" 
	d="
M179.257996,161.189651 
	C179.048233,159.800308 179.048233,158.698639 179.048233,156.605438 
	C180.229156,158.887314 180.324112,160.178726 179.257996,161.189651 
z"/>
<path fill="#000000" opacity="1.000000" stroke="none" 
	d="
M113.476868,121.995071 
	C113.468285,120.656631 114.866058,120.968117 115.859955,120.712776 
	C115.684502,122.287712 114.658569,121.922577 113.476868,121.995071 
z"/>
<path fill="#000000" opacity="1.000000" stroke="none" 
	d="
M160.002701,163.626251 
	C160.453003,164.663574 160.312500,165.268127 159.449051,164.733994 
	C158.639053,164.232910 159.153885,163.703171 160.002701,163.626251 
z"/>
<path fill="#000000" opacity="1.000000" stroke="none" 
	d="
M163.879456,186.895050 
	C163.760452,187.940231 163.198486,188.213745 162.398987,187.718216 
	C162.359100,187.693497 162.684799,187.078949 163.061401,186.545502 
	C163.416489,186.471222 163.550461,186.590485 163.879456,186.895050 
z"/>
<path fill="#0C0900" opacity="1.000000" stroke="none" 
	d="
M185.938583,112.240280 
	C187.627777,110.594482 188.656967,108.376137 191.345474,108.971611 
	C195.742554,109.945496 197.609528,107.791779 198.081848,103.617783 
	C198.303391,101.659935 199.203751,99.788483 199.596191,97.837585 
	C199.958847,96.034775 200.886002,95.379280 202.689728,95.450951 
	C205.351929,95.556740 208.037888,95.661514 210.684662,95.431808 
	C215.844635,94.983994 215.455185,97.123817 213.007019,100.666298 
	C207.831436,95.757179 202.185013,97.914719 201.210648,104.563271 
	C200.678253,108.196152 200.830780,113.213951 194.060486,111.850464 
	C196.839157,115.981712 199.380859,119.629356 194.220871,123.385452 
	C190.815170,125.864563 188.829849,124.461685 186.321304,121.989944 
	C183.080231,118.796425 182.044952,115.930008 185.938583,112.240280 
z"/>
<path fill="#000000" opacity="1.000000" stroke="none" 
	d="
M204.187790,181.706726 
	C205.710556,185.730698 203.133057,187.578461 200.499969,188.619858 
	C198.284119,189.496231 195.618134,188.382736 195.183334,185.803757 
	C194.745209,183.204956 195.456039,180.409927 198.942871,180.044571 
	C200.710724,179.859314 202.630371,179.628082 204.187790,181.706726 
z"/>
<path fill="#000000" opacity="1.000000" stroke="none" 
	d="
M215.768967,125.665497 
	C218.701828,124.594902 221.159821,124.818977 221.892349,127.802780 
	C222.528000,130.391922 221.321854,132.581146 218.679108,133.680832 
	C216.467316,134.601212 214.515030,133.848221 213.598709,131.927841 
	C212.513382,129.653305 212.035339,127.046562 215.768967,125.665497 
z"/>
<path fill="#000000" opacity="1.000000" stroke="none" 
	d="
M207.699936,165.712448 
	C209.661377,162.939362 211.800919,162.090225 214.421844,163.970825 
	C216.511841,165.470444 216.491928,167.715637 215.581955,169.705078 
	C214.572739,171.911575 212.300018,172.635345 210.160019,171.862946 
	C207.597610,170.938065 206.466873,168.857330 207.699936,165.712448 
z"/>
<path fill="#000000" opacity="1.000000" stroke="none" 
	d="
M214.851517,148.396927 
	C215.280991,145.332458 216.738495,143.719177 219.532104,144.082474 
	C221.701874,144.364639 223.012619,145.834534 222.972763,148.160202 
	C222.931412,150.574905 221.456833,152.349976 219.375000,152.770020 
	C216.596222,153.330658 215.046677,151.532455 214.851517,148.396927 
z"/>
<path fill="#000000" opacity="1.000000" stroke="none" 
	d="
M201.255600,145.954102 
	C199.085297,145.044739 198.333130,143.733337 199.595947,141.995499 
	C200.447830,140.823181 201.521271,139.537018 203.264343,140.139160 
	C204.418015,140.537689 204.991730,141.491653 205.004471,142.822128 
	C205.026749,145.150452 203.882507,146.106308 201.255600,145.954102 
z"/>
<path fill="#000000" opacity="1.000000" stroke="none" 
	d="
M214.911209,157.652618 
	C216.449188,156.751923 216.975830,157.291687 216.952774,158.596405 
	C216.940613,159.284241 216.717972,160.060959 215.899841,159.840363 
	C215.083282,159.620178 213.942368,159.273285 214.911209,157.652618 
z"/>
<path fill="#000000" opacity="1.000000" stroke="none" 
	d="
M192.088684,192.347153 
	C190.550720,193.247940 190.024292,192.707993 190.047302,191.403442 
	C190.059433,190.715652 190.282059,189.938919 191.100128,190.159576 
	C191.916504,190.379791 193.057541,190.726547 192.088684,192.347153 
z"/>
<path fill="#000000" opacity="1.000000" stroke="none" 
	d="
M204.281799,177.509430 
	C204.118027,176.443665 203.706696,175.447342 204.809082,175.169250 
	C205.780563,174.924179 206.659546,175.844925 206.608292,176.428818 
	C206.524399,177.384277 205.653275,178.061661 204.281799,177.509430 
z"/>
<path fill="#000000" opacity="1.000000" stroke="none" 
	d="
M205.893555,101.489334 
	C206.732513,102.277924 207.381622,102.931572 206.534592,103.689735 
	C205.980179,104.185974 205.366287,103.830383 204.875732,103.322472 
	C203.679276,102.083694 204.893768,101.776146 205.893555,101.489334 
z"/>
<path fill="#000000" opacity="1.000000" stroke="none" 
	d="
M215.067413,121.377625 
	C214.051437,121.965004 213.192841,122.214561 213.140305,120.959747 
	C213.105408,120.126190 213.769562,119.354118 214.562927,119.444229 
	C215.233276,119.520370 216.077194,120.123657 215.067413,121.377625 
z"/>
<path fill="#150D01" opacity="1.000000" stroke="none" 
	d="
M158.148361,74.820694 
	C157.357925,79.315536 156.165359,83.649902 154.920471,88.353195 
	C154.777008,88.937263 154.685852,89.152420 154.342804,89.611313 
	C154.090927,89.855042 153.857208,89.915245 153.856506,90.037979 
	C151.823410,91.994652 149.154770,93.342979 149.180161,96.690781 
	C149.191238,98.149040 147.982544,98.001404 147.016968,98.004425 
	C143.858871,98.014305 140.699371,98.041603 137.543396,97.954552 
	C136.689331,97.930992 135.285995,98.219696 135.398849,96.702034 
	C135.477768,95.641083 136.359665,95.003632 137.485336,94.918388 
	C148.183853,94.108261 152.123779,86.380096 155.182297,77.702782 
	C155.633469,76.422783 155.537399,74.523880 158.148361,74.820694 
z"/>
<path fill="#110901" opacity="1.000000" stroke="none" 
	d="
M124.515144,95.512054 
	C124.746925,94.803017 124.830254,94.480476 124.911552,94.157417 
	C128.001541,81.879402 128.001526,81.879402 141.071259,83.139450 
	C141.061600,83.453293 141.069916,84.038681 141.029572,84.042053 
	C135.607376,84.495293 134.368683,90.430107 130.077164,92.396851 
	C128.596466,93.075432 128.530304,94.855171 128.231277,96.275383 
	C127.859482,98.041222 126.660362,98.250160 125.241318,98.106522 
	C123.617760,97.942177 124.170921,96.829964 124.515144,95.512054 
z"/>
<path fill="#000000" opacity="1.000000" stroke="none" 
	d="
M131.289703,97.959885 
	C129.297607,96.835777 131.163269,96.036552 131.388260,96.098785 
	C132.245819,96.336021 132.996323,96.960236 133.786835,97.439873 
	C133.247009,98.279152 132.389297,97.858994 131.289703,97.959885 
z"/>
<path fill="#030300" opacity="1.000000" stroke="none" 
	d="
M85.624619,89.687393 
	C87.323509,82.829193 87.326180,82.717163 96.603271,82.938484 
	C98.317764,82.979393 101.347786,81.092842 101.789421,84.451042 
	C102.259102,88.022438 98.578072,92.934029 95.986214,92.985710 
	C93.158905,93.042099 90.323410,92.881775 87.502983,93.031952 
	C84.997513,93.165352 84.625954,92.122070 85.624619,89.687393 
z"/>
<path fill="#080301" opacity="1.000000" stroke="none" 
	d="
M107.625290,108.822021 
	C108.393143,108.857033 108.710930,109.030594 109.248322,109.370155 
	C109.188042,110.612434 101.140564,117.223709 100.322502,116.956100 
	C98.546349,116.375069 96.708832,115.408623 97.367874,113.265900 
	C97.904785,111.520241 96.218094,111.048958 96.102646,109.483429 
	C99.755699,109.094719 103.465462,109.027641 107.625290,108.822021 
z"/>
<path fill="#030200" opacity="1.000000" stroke="none" 
	d="
M60.698936,82.866684 
	C63.417484,85.568848 60.586895,87.465958 60.031013,89.666664 
	C57.945976,97.921165 57.869793,97.905579 49.600330,97.996719 
	C47.805176,98.016510 46.009621,97.999611 43.845028,97.999611 
	C45.003952,93.504044 46.141819,89.372704 47.113499,85.202629 
	C47.604866,83.093887 48.928448,82.762543 50.778084,82.814301 
	C53.928478,82.902481 57.083027,82.841972 60.698936,82.866684 
z"/>
<path fill="#E8501A" opacity="1.000000" stroke="none" 
	d="
M187.357391,100.746887 
	C186.708832,101.029388 186.280243,101.014656 185.531662,100.982315 
	C185.329498,98.851715 184.262650,98.070267 182.231384,98.109947 
	C179.449722,98.164284 176.665253,98.075104 173.427032,97.968765 
	C173.006149,96.755081 173.394135,95.232460 172.171265,94.758919 
	C167.595428,92.987000 168.411652,89.409515 170.315720,86.896927 
	C172.362625,84.195877 177.295975,84.569008 178.785110,86.183823 
	C183.039276,90.797028 185.994507,88.629662 189.417450,85.768143 
	C189.622055,85.597099 190.054794,85.698921 190.788727,85.726051 
	C189.989838,90.668770 188.783600,95.559212 187.357391,100.746887 
z"/>
<path fill="#000000" opacity="1.000000" stroke="none" 
	d="
M181.976990,234.528793 
	C181.148331,235.088760 179.981354,234.757553 179.980011,236.541870 
	C178.032242,237.009552 175.734680,237.435898 177.951035,234.312302 
	C178.318588,233.794281 178.440094,233.019958 178.905228,232.667496 
	C180.638016,231.354431 182.067947,227.684875 184.205612,229.344299 
	C186.604553,231.206558 181.761093,232.001999 181.976990,234.528793 
z"/>
<path fill="#000000" opacity="1.000000" stroke="none" 
	d="
M164.222717,206.444946 
	C166.968964,206.813675 169.560074,206.813675 172.151199,206.813675 
	C167.609756,208.889725 163.204788,207.341370 158.599747,206.765610 
	C159.876801,204.659454 162.434570,205.197418 164.127106,204.070374 
	C164.349350,203.922424 165.515167,203.695496 165.234619,204.742401 
	C165.097397,205.254486 164.472015,205.635742 164.222717,206.444946 
z"/>
<path fill="#000000" opacity="1.000000" stroke="none" 
	d="
M163.308502,200.628021 
	C165.757141,198.546494 168.028595,198.284348 170.810699,200.176865 
	C167.949112,201.846634 165.267227,202.642212 162.280579,201.557953 
	C162.171387,201.518295 162.083038,201.273468 162.077789,201.121063 
	C162.056076,200.491486 162.421753,200.353729 163.308502,200.628021 
z"/>
<path fill="#000000" opacity="1.000000" stroke="none" 
	d="
M157.102829,217.263794 
	C155.700073,215.066757 155.718658,213.137711 156.443451,210.959045 
	C159.838715,214.246689 159.838715,214.246689 157.102829,217.263794 
z"/>
<path fill="#000000" opacity="1.000000" stroke="none" 
	d="
M180.395233,216.630127 
	C181.811340,213.565445 184.313980,215.620193 186.718735,214.968826 
	C184.925552,217.289169 182.810410,217.100342 180.395233,216.630127 
z"/>
<path fill="#000000" opacity="1.000000" stroke="none" 
	d="
M169.625580,225.370392 
	C168.346024,222.889511 169.772705,221.048233 171.506393,219.039948 
	C172.861038,221.762436 170.311234,223.186249 169.625580,225.370392 
z"/>
<path fill="#000000" opacity="1.000000" stroke="none" 
	d="
M185.307739,205.681198 
	C183.960052,206.231461 183.012161,207.260147 182.416550,209.979904 
	C181.937943,204.006317 181.937943,204.006317 184.997345,205.495819 
	C185.224243,205.767792 185.280441,205.710587 185.307739,205.681198 
z"/>
<path fill="#000000" opacity="1.000000" stroke="none" 
	d="
M156.825714,204.903625 
	C155.865906,203.983322 155.669495,202.909821 156.456512,202.242218 
	C157.154800,201.649887 158.013489,202.288101 158.413635,203.012268 
	C159.112579,204.277283 157.840714,204.442230 156.825714,204.903625 
z"/>
<path fill="#000000" opacity="1.000000" stroke="none" 
	d="
M173.277771,202.997757 
	C172.572968,202.744705 171.284775,202.690186 171.986649,202.372498 
	C173.251907,201.799820 174.909378,202.093613 176.413208,202.820221 
	C175.492813,202.880112 174.572418,202.940002 173.277771,202.997757 
z"/>
<path fill="#000000" opacity="1.000000" stroke="none" 
	d="
M166.703033,227.019760 
	C168.151535,228.685745 166.678040,228.844681 165.783585,228.867523 
	C165.093140,228.885132 164.247955,228.194321 164.501068,227.304153 
	C164.573334,227.050003 165.700211,227.095749 166.703033,227.019760 
z"/>
<path fill="#000000" opacity="1.000000" stroke="none" 
	d="
M168.601410,234.203903 
	C169.672577,234.075516 170.611572,233.723831 170.881607,234.770569 
	C170.963043,235.086273 170.606796,235.813202 170.350311,235.866409 
	C169.201065,236.104935 168.699448,235.242645 168.601410,234.203903 
z"/>
<path fill="#000000" opacity="1.000000" stroke="none" 
	d="
M155.120209,209.103836 
	C155.238876,208.058838 155.801422,207.785416 156.600861,208.280228 
	C156.641281,208.305252 156.316788,208.919876 155.941071,209.453537 
	C155.585342,209.527817 155.450760,209.408524 155.120209,209.103836 
z"/>
<path fill="#E04B1A" opacity="1.000000" stroke="none" 
	d="
M152.599487,109.093018 
	C152.558289,110.604179 152.863754,111.470070 154.470993,112.116081 
	C155.940842,112.706871 156.250031,114.320419 155.908356,115.896805 
	C155.610901,117.269119 154.461700,116.870956 153.567078,116.999268 
	C151.718536,117.264389 151.258224,116.283058 150.726212,114.635330 
	C150.205078,113.021339 149.872787,111.554932 150.300125,109.520470 
	C151.030533,109.089386 151.659439,109.059891 152.599487,109.093018 
z"/>
<path fill="#FAD702" opacity="1.000000" stroke="none" 
	d="
M154.287369,89.719482 
	C154.035553,89.492798 154.151352,89.197693 154.653229,88.845924 
	C154.836914,89.052650 154.708801,89.339920 154.287369,89.719482 
z"/>
<path fill="#000000" opacity="1.000000" stroke="none" 
	d="
M115.587112,204.779404 
	C117.085045,205.745499 117.897217,206.939819 116.948074,207.946472 
	C116.517647,208.402969 116.076981,206.925095 115.515488,205.937195 
	C115.214981,205.303818 115.158806,204.972763 115.587112,204.779404 
z"/>
<path fill="#000000" opacity="1.000000" stroke="none" 
	d="
M98.109604,230.884338 
	C96.906937,230.249023 96.140396,229.031097 97.021652,228.045731 
	C97.441208,227.576599 97.925835,229.002991 98.434555,230.004257 
	C98.548271,230.433578 98.424553,230.563934 98.109604,230.884338 
z"/>
<path fill="#000000" opacity="1.000000" stroke="none" 
	d="
M95.314575,226.016388 
	C93.922867,227.477615 94.215683,225.852982 93.786247,225.212463 
	C93.426826,224.676392 93.799454,224.096436 94.094467,224.236511 
	C94.546593,224.451202 94.778679,225.129318 95.314575,226.016388 
z"/>
<path fill="#000000" opacity="1.000000" stroke="none" 
	d="
M104.024048,225.014465 
	C103.109497,224.884903 102.773308,224.192764 102.583588,223.397202 
	C102.577950,223.373535 103.278130,223.075073 103.348633,223.158569 
	C103.624229,223.484955 103.778847,223.913467 103.957642,224.700943 
	C103.936852,225.097855 103.991669,225.038559 104.024048,225.014465 
z"/>
<path fill="#000000" opacity="1.000000" stroke="none" 
	d="
M100.962547,221.428589 
	C101.898544,221.130142 102.229691,221.822113 102.432182,222.605682 
	C102.439072,222.632370 101.758049,222.950623 101.676834,222.865784 
	C101.384224,222.560104 101.211342,222.139832 100.962547,221.428589 
z"/>
<path fill="#000000" opacity="1.000000" stroke="none" 
	d="
M91.998016,221.644852 
	C92.437813,222.658401 92.285095,223.233734 91.454353,222.717499 
	C90.662941,222.225677 91.172272,221.718216 91.998016,221.644852 
z"/>
<path fill="#000000" opacity="1.000000" stroke="none" 
	d="
M101.019180,221.010864 
	C100.105995,220.881119 99.770248,220.190964 99.584457,219.394958 
	C99.578758,219.370514 100.278091,219.074203 100.349121,219.158142 
	C100.624519,219.483643 100.778641,219.911789 100.954887,220.698029 
	C100.931870,221.094345 100.986641,221.034851 101.019180,221.010864 
z"/>
<path fill="#000000" opacity="1.000000" stroke="none" 
	d="
M98.427963,217.550568 
	C98.940353,217.813858 99.937172,218.285370 99.059288,218.764359 
	C98.206932,219.229431 98.149345,218.374008 98.427963,217.550568 
z"/>
<path fill="#000000" opacity="1.000000" stroke="none" 
	d="
M119.436447,209.609299 
	C118.581902,209.796967 117.676704,209.723877 118.247345,208.874542 
	C118.797501,208.055725 119.214508,209.104675 119.436447,209.609299 
z"/>
<path fill="#000000" opacity="1.000000" stroke="none" 
	d="
M115.474548,205.459076 
	C114.965561,205.179108 113.969978,205.019760 114.535416,204.229935 
	C114.662331,204.052658 115.398987,204.311905 115.963272,204.643646 
	C115.940376,205.039154 115.809151,205.161224 115.474548,205.459076 
z"/>
<path fill="#000000" opacity="1.000000" stroke="none" 
	d="
M127.252335,241.654724 
	C127.077950,242.474289 127.128738,243.060837 126.867882,243.422791 
	C126.485107,243.953903 125.486481,244.276871 125.345245,243.564682 
	C124.946106,241.551895 123.202148,239.699112 124.229118,237.538269 
	C124.671829,236.606781 125.595131,237.069138 126.545334,237.889069 
	C127.758064,239.034134 127.469627,240.188583 127.252335,241.654724 
z"/>
<path fill="#FFE700" opacity="1.000000" stroke="none" 
	d="
M127.425446,241.797714 
	C126.658180,240.931992 125.100006,239.990952 126.844254,238.366470 
	C129.550400,238.690720 129.136292,240.032455 127.425446,241.797714 
z"/>
<path fill="#000000" opacity="1.000000" stroke="none" 
	d="
M131.796143,245.730515 
	C132.203812,247.401993 131.694641,248.272141 130.356018,248.653702 
	C130.238846,247.715637 130.121674,246.777573 130.022858,245.477783 
	C130.715378,244.540329 131.216644,244.930206 131.796143,245.730515 
z"/>
<path fill="#000000" opacity="1.000000" stroke="none" 
	d="
M130.364624,244.151596 
	C129.437485,242.734421 128.389893,241.257874 131.047104,242.548798 
	C131.602646,242.818695 132.185608,243.032166 132.856873,243.578461 
	C132.329208,244.610153 131.553223,244.706787 130.364624,244.151596 
z"/>
<path fill="#FFE700" opacity="1.000000" stroke="none" 
	d="
M130.040817,244.192947 
	C130.772461,243.919205 131.502487,243.953171 132.595169,243.936203 
	C132.755096,244.464737 132.552368,245.044189 132.120346,245.835678 
	C131.457169,245.735428 131.023270,245.423157 130.315277,245.113495 
	C130.040527,244.910934 130.039856,244.705795 130.040817,244.192947 
z"/>
<path fill="#000000" opacity="1.000000" stroke="none" 
	d="
M195.417511,247.572403 
	C194.964615,246.042145 194.970352,244.933090 196.729721,245.071335 
	C197.492706,245.131271 197.874359,245.532181 197.929779,246.286880 
	C198.059937,248.059158 196.927460,248.025085 195.417511,247.572403 
z"/>
<path fill="#000000" opacity="1.000000" stroke="none" 
	d="
M210.906586,231.897003 
	C209.870483,233.172012 208.840073,233.482056 208.168076,232.051483 
	C207.966171,231.621613 208.222931,230.551712 208.580536,230.362396 
	C209.702225,229.768555 210.801987,229.795212 210.906586,231.897003 
z"/>
<path fill="#000000" opacity="1.000000" stroke="none" 
	d="
M47.100754,172.088440 
	C49.212292,172.191956 49.246136,173.293259 48.645695,174.422867 
	C48.454453,174.782669 47.381058,175.040100 46.948013,174.837784 
	C45.507698,174.164810 45.821777,173.129303 47.100754,172.088440 
z"/>
<path fill="#000000" opacity="1.000000" stroke="none" 
	d="
M52.663830,152.432816 
	C53.176327,153.974716 52.848766,155.061005 51.643852,155.570404 
	C51.371563,155.685547 50.416088,154.980911 50.296349,154.518616 
	C49.851109,152.799652 50.912601,152.214966 52.663830,152.432816 
z"/>
<path fill="#000000" opacity="1.000000" stroke="none" 
	d="
M69.107941,240.882080 
	C69.738945,239.786850 70.451805,238.581482 71.417366,239.279388 
	C72.470909,240.040894 72.216606,241.361542 71.176620,242.212418 
	C69.926300,243.235367 69.629410,241.919907 69.107941,240.882080 
z"/>
<path fill="#000000" opacity="1.000000" stroke="none" 
	d="
M85.273712,252.454086 
	C86.789642,253.091064 87.469948,254.119034 86.623802,255.538376 
	C86.490059,255.762726 85.681046,255.850830 85.391327,255.670059 
	C84.104919,254.867447 83.427368,253.874329 85.273712,252.454086 
z"/>
<path fill="#000000" opacity="1.000000" stroke="none" 
	d="
M55.121071,217.076950 
	C57.656147,217.327118 57.127224,218.672760 56.506222,219.872894 
	C56.308056,220.255875 55.811161,221.103668 55.020081,220.398621 
	C53.893456,219.394531 53.469166,218.324844 55.121071,217.076950 
z"/>
<path fill="#000000" opacity="1.000000" stroke="none" 
	d="
M50.867245,200.078110 
	C49.531269,201.409729 48.389133,201.140991 47.524185,199.850220 
	C47.012165,199.086121 47.825218,198.644272 48.270859,198.385147 
	C49.730267,197.536545 50.227684,198.841614 50.867245,200.078110 
z"/>
<path fill="#000000" opacity="1.000000" stroke="none" 
	d="
M128.665833,268.041260 
	C130.469727,268.618927 131.185730,269.396667 129.728134,270.720490 
	C129.198883,271.201172 128.651489,272.145905 127.848320,271.218750 
	C126.846313,270.061981 125.999123,268.774567 128.665833,268.041260 
z"/>
<path fill="#000000" opacity="1.000000" stroke="none" 
	d="
M108.416885,266.560272 
	C107.961525,265.030487 107.979691,263.931763 109.729149,264.070160 
	C110.487495,264.130157 110.870369,264.524963 110.929970,265.279327 
	C111.071838,267.074860 109.891380,266.966095 108.416885,266.560272 
z"/>
<path fill="#000000" opacity="1.000000" stroke="none" 
	d="
M222.041718,206.093582 
	C223.104660,207.188095 223.576385,208.293747 222.002045,208.869110 
	C221.016678,209.229218 219.793335,208.849899 219.563339,207.814316 
	C219.231201,206.318771 220.526215,206.128693 222.041718,206.093582 
z"/>
<path fill="#000000" opacity="1.000000" stroke="none" 
	d="
M223.835266,186.711029 
	C225.900635,185.504410 226.138779,186.716293 225.896057,187.967697 
	C225.773438,188.599930 224.715637,189.655670 224.483109,189.558350 
	C223.401749,189.105759 222.439636,188.323868 223.835266,186.711029 
z"/>
<path fill="#000000" opacity="1.000000" stroke="none" 
	d="
M156.226379,266.774414 
	C157.506454,268.750488 156.375778,269.571869 155.022919,269.806000 
	C154.010071,269.981232 153.024918,268.996918 153.197449,267.981842 
	C153.428284,266.623688 154.249008,265.499237 156.226379,266.774414 
z"/>
<path fill="#000000" opacity="1.000000" stroke="none" 
	d="
M173.442032,262.726929 
	C172.532898,261.707367 170.966705,260.723053 173.160278,260.131195 
	C174.088318,259.880798 175.598312,259.434662 175.899017,261.182983 
	C176.190567,262.878021 175.096161,263.067261 173.442032,262.726929 
z"/>
<path fill="#000000" opacity="1.000000" stroke="none" 
	d="
M62.340275,128.309875 
	C64.108582,128.318024 65.280319,128.922852 64.646881,130.621384 
	C64.330246,131.470444 63.474434,132.375504 62.309357,131.643097 
	C60.918537,130.768768 60.600487,129.681885 62.340275,128.309875 
z"/>
<path fill="#000000" opacity="1.000000" stroke="none" 
	d="
M76.101204,114.076500 
	C78.193649,114.192406 78.252365,115.284653 77.645950,116.420357 
	C77.453407,116.780945 76.380386,117.039330 75.948235,116.836777 
	C74.508362,116.161942 74.824944,115.124893 76.101204,114.076500 
z"/>
<path fill="#000000" opacity="1.000000" stroke="none" 
	d="
M111.488388,183.705185 
	C111.758751,183.012772 112.253128,182.834335 112.758095,183.457413 
	C112.408264,183.616028 112.058441,183.774643 111.488388,183.705185 
z"/>
<path fill="#000000" opacity="1.000000" stroke="none" 
	d="
M115.698380,184.644165 
	C116.683838,185.257843 116.846169,185.821472 115.850388,185.857971 
	C114.907791,185.892471 115.017868,185.187851 115.698380,184.644165 
z"/>
</svg>